<svg width="45" height="37" viewBox="0 0 45 37" fill="none" xmlns="http://www.w3.org/2000/svg">
<path d="M25.5853 0.0848571C25.0223 0.293712 24.6879 0.546079 23.7289 1.52074C22.6204 2.62593 22.4004 3.01753 22.4004 3.88776C22.4004 4.96685 22.2773 4.8102 27.6881 10.1708L32.5886 15.0267H17.3064C2.15613 15.0267 2.01536 15.0267 1.54027 15.2007C0.889212 15.4444 0.317339 16.0536 0.123782 16.7149C0.00940704 17.1065 -0.0169871 17.5069 0.00940704 18.6643C0.0358012 19.9261 0.0621953 20.1698 0.229358 20.5178C0.449309 21.0052 0.968394 21.5447 1.44349 21.771C1.78661 21.945 2.10334 21.945 17.2184 21.9885L32.6326 22.032L27.7057 26.9053C22.2773 32.2747 22.3916 32.1354 22.4004 33.1884C22.4092 34.0238 22.6732 34.4763 23.8521 35.6163C25.0838 36.8173 25.4006 37 26.298 37C26.8434 36.9913 27.037 36.9565 27.3977 36.765C27.9872 36.4518 44.5803 20.0305 44.8267 19.5084C45.073 18.9862 45.0554 17.9768 44.7827 17.4546C44.5011 16.8977 27.82 0.415544 27.3185 0.189285C26.861 -0.0108681 25.99 -0.0630819 25.5853 0.0848571Z" fill="#777777"/>
</svg>
