<svg width="65" height="65" viewBox="0 0 65 65" fill="none" xmlns="http://www.w3.org/2000/svg">
<path d="M29.5167 0.139664C15.8184 1.40919 4.35454 11.1973 1.02837 24.4639C-3.3769 41.9707 7.09673 59.6045 24.502 63.9844C37.8829 67.3486 51.8604 62.0039 59.503 50.5908C66.8155 39.6729 66.8155 25.3399 59.503 14.4092C57.2178 10.9941 54.0059 7.78224 50.5909 5.49708C44.459 1.3838 36.8672 -0.545883 29.5167 0.139664ZM22.2422 18.6113C22.4708 18.7256 24.8702 21.0234 27.587 23.7149L32.5 28.6152L37.4258 23.7149C40.1299 21.0234 42.542 18.7129 42.7833 18.5859C43.0625 18.4463 43.5069 18.3574 43.9893 18.3447C45.5254 18.3447 46.6553 19.4746 46.6553 21.0107C46.6426 21.4932 46.5538 21.9375 46.4141 22.2168C46.2872 22.458 43.9766 24.8701 41.2852 27.5742L36.3848 32.5L41.2852 37.4131C43.9766 40.1299 46.2872 42.542 46.4141 42.7832C46.5538 43.0625 46.6426 43.5068 46.6553 43.9893C46.6553 45.5254 45.5254 46.6553 43.9893 46.6553C43.5069 46.6426 43.0625 46.5537 42.7833 46.4141C42.542 46.2871 40.1299 43.9766 37.4258 41.2852L32.5 36.3721L27.587 41.2852C24.8702 43.9766 22.4581 46.2871 22.2168 46.4141C21.9375 46.5537 21.4932 46.6426 21.0108 46.6553C19.4747 46.6553 18.3448 45.5254 18.3448 43.9893C18.3575 43.5068 18.4463 43.0625 18.586 42.7832C18.7129 42.542 21.0235 40.1299 23.7149 37.4131L28.6153 32.5L23.7149 27.5742C21.0235 24.8701 18.7129 22.458 18.586 22.2168C18.4463 21.9375 18.3575 21.4932 18.3448 21.0107C18.3448 19.7793 19.0811 18.7891 20.2872 18.3955C20.7569 18.2432 21.7344 18.3447 22.2422 18.6113Z" fill="#A5A4FF"/>
</svg>
