<svg width="35" height="23" viewBox="0 0 35 23" fill="none" xmlns="http://www.w3.org/2000/svg">
<path d="M4.06341 17.2695H30.4757C32.7199 17.2695 34.5392 18.5523 34.5392 20.1347C34.5392 21.7171 32.7199 22.9999 30.4757 22.9999H4.06341C1.81925 22.9999 -2.16961e-05 21.7171 -2.16961e-05 20.1347C-2.16961e-05 18.5523 1.81925 17.2695 4.06341 17.2695Z" fill="black"/>
<path d="M2.85958 8.58887H31.4547C33.034 8.58887 34.3142 9.87167 34.3142 11.4541C34.3142 13.0365 33.034 14.3193 31.4547 14.3193H2.85958C1.28033 14.3193 6.96182e-05 13.0365 6.96182e-05 11.4541C6.96182e-05 9.87167 1.28033 8.58887 2.85958 8.58887Z" fill="black"/>
<path d="M2.65684 0H31.8823C33.3497 0 34.5392 1.2828 34.5392 2.8652C34.5392 4.4476 33.3497 5.7304 31.8823 5.7304H2.65684C1.18951 5.7304 -2.16961e-05 4.4476 -2.16961e-05 2.8652C-2.16961e-05 1.2828 1.18951 0 2.65684 0Z" fill="black"/>
</svg>
