<svg width="35" height="35" viewBox="0 0 35 35" fill="none" xmlns="http://www.w3.org/2000/svg">
<g clip-path="url(#clip0_328_18)">
<path d="M35 6.64561C33.7123 7.21728 32.3283 7.60228 30.8758 7.77582C32.359 6.88769 33.4979 5.4804 34.0331 3.80332C32.6463 4.62582 31.1092 5.22374 29.4729 5.54603C28.1648 4.1504 26.2967 3.27832 24.2317 3.27832C19.5956 3.27832 16.189 7.60374 17.236 12.0939C11.27 11.795 5.97917 8.93665 2.43688 4.59228C0.555625 7.81957 1.46125 12.0414 4.65792 14.1794C3.4825 14.1414 2.37417 13.8192 1.40729 13.281C1.32854 16.6075 3.71292 19.7196 7.16625 20.4123C6.15563 20.6864 5.04875 20.7506 3.92292 20.5348C4.83583 23.3873 7.48708 25.4625 10.6313 25.5208C7.6125 27.8877 3.80917 28.945 0 28.4958C3.17771 30.5331 6.95333 31.7217 11.0075 31.7217C24.3396 31.7217 31.8719 20.4619 31.4169 10.3629C32.8198 9.34936 34.0375 8.08499 35 6.64561Z" fill="#050505"/>
</g>
<defs>
<clipPath id="clip0_328_18">
<rect width="35" height="35" fill="white"/>
</clipPath>
</defs>
</svg>
