<svg width="35" height="35" viewBox="0 0 35 35" fill="none" xmlns="http://www.w3.org/2000/svg">
<path d="M6.1865 3.5681C5.25682 3.74583 4.25877 4.52513 3.83494 5.4138C3.52049 6.08372 3.42478 6.80833 3.56834 7.47142C3.72556 8.17552 3.97849 8.68138 4.40916 9.14622C6.50096 11.3952 10.1855 9.94603 10.1855 6.86985C10.1855 4.72337 8.29197 3.16478 6.1865 3.5681Z" fill="black"/>
<path d="M23.1055 12.5098C22.7842 12.5781 22.374 12.6875 22.1826 12.749C21.041 13.1455 19.8926 14.0205 19.2773 14.9844L19.0039 15.3945L18.9902 14.1094L18.9697 12.8174L16.1875 12.7969L13.3984 12.7832V22.1484V31.5137H16.3037H19.209V26.5029C19.209 21.5127 19.2432 20.6992 19.4551 19.8584C19.708 18.874 20.3096 18.0879 21.0684 17.7393C21.8477 17.3838 23.0986 17.3428 23.8848 17.6367C24.6436 17.9238 25.2109 18.6279 25.457 19.5918C25.6621 20.3916 25.7031 21.499 25.7031 26.4688V31.4453H28.6084H31.5137V25.9902C31.5137 20.3506 31.4727 19.1064 31.2334 17.7734C30.6729 14.5947 29.0596 12.9131 26.1338 12.4756C25.2109 12.3389 23.8369 12.3525 23.1055 12.5098Z" fill="black"/>
<path d="M3.96484 22.1484V31.5137H6.87012H9.77539V22.1484V12.7832H6.87012H3.96484V22.1484Z" fill="black"/>
</svg>
